<?xml version="1.0" encoding="utf-8"?>
<svg version="1.1" id="Layer_1" xmlns="http://www.w3.org/2000/svg" xmlns:xlink="http://www.w3.org/1999/xlink" x="0px" y="0px"
	 viewBox="0 0 700 700" style="enable-background:new 0 0 700 700;" xml:space="preserve">
<style type="text/css">
	.st0{fill-rule:evenodd;clip-rule:evenodd;}
</style>
<g>
	<path fill="#9F9F9F" class="st0" d="M354.6,42.6C183.8,42.9,45.4,179.9,43,349.5c-2.5,175.8,138.3,312.7,304.3,316.4
		c174.8,3.9,315.4-136.1,319-304.7C670,187.1,529.7,42.7,354.6,42.6L354.6,42.6z M350.8,628.1c-149-2-271.5-124.6-269.9-276.8
		C82.5,201.2,205.6,80.4,355,80.6c151,0.2,273.4,123,273.4,274.4C628.3,505.6,504.2,630.2,350.8,628.1z"/>
	<path fill="#9F9F9F" class="st0" d="M351.7,281.9c-13.5,0-23.6,9.1-23.6,21.4c0,69.8,0,139.7,0,209.5c0,12.8,9.4,21.5,23.3,21.5
		c14.2,0,23.6-8.6,23.6-21.8c0-34.9,0-69.6,0-104.5c0-35,0-70,0-105C375,291,365,282,351.7,281.9L351.7,281.9z"/>
	<path fill="#9F9F9F" class="st0" d="M353.3,191.6c-17.1-0.1-30.5,12.9-30.5,29.5c0,17.1,13,30.3,29.8,30.3c16.9,0.1,30.4-13.2,30.5-29.9
		C383,205.2,369.7,191.6,353.3,191.6L353.3,191.6z"/>
</g>
</svg>
